<svg width="16" height="15" viewBox="0 0 16 15" fill="none" xmlns="http://www.w3.org/2000/svg">
<path d="M14 11.0817C13.827 11.3117 14.215 11.9007 14 12.0817C13.4716 12.6397 12.7635 12.9937 12 13.0817C10.9537 13.0363 9.96239 12.6004 9.22184 11.8598C8.48129 11.1193 8.04532 10.128 8 9.08167C8.04532 8.03535 8.48129 7.04405 9.22184 6.3035C9.96239 5.56295 10.9537 5.12698 12 5.08167C13.939 5.08167 15 6.87267 15 9.08167" stroke="#A3A3A3" stroke-width="2" stroke-linecap="round" stroke-linejoin="round"/>
<path d="M1 1.08167V13.0817H3" stroke="#A3A3A3" stroke-width="2" stroke-linecap="round" stroke-linejoin="round"/>
<path d="M10 1.08167H13" stroke="#A3A3A3" stroke-width="2" stroke-linecap="round" stroke-linejoin="round"/>
<path d="M2 6.08156C4.048 6.08156 8 5.77357 8 9.08157C8 12.7416 5.048 13.0816 3 13.0816" stroke="#A3A3A3" stroke-width="2" stroke-linecap="round" stroke-linejoin="round"/>
<path d="M1 1.08162C2.887 1.08162 6 0.381618 6 3.08162C6 5.41062 2.887 6.08162 1 6.08162" stroke="#A3A3A3" stroke-width="2" stroke-linecap="round" stroke-linejoin="round"/>
<path d="M11 9.08167H15" stroke="#A3A3A3" stroke-width="2" stroke-linecap="round" stroke-linejoin="round"/>
<path d="M1 13.0817H4" stroke="#A3A3A3" stroke-width="2" stroke-linecap="round" stroke-linejoin="round"/>
</svg>
