<svg width="195" height="23" viewBox="0 0 195 23" fill="none" xmlns="http://www.w3.org/2000/svg">
<g clip-path="url(#clip0_1_45)">
<path d="M171.721 4.59644H170.069C169.986 4.59747 169.908 4.63093 169.849 4.68971C169.791 4.74849 169.758 4.82794 169.756 4.91116V18.0815C169.758 18.1646 169.791 18.2439 169.85 18.3025C169.908 18.3611 169.987 18.3944 170.069 18.3955H171.721C171.803 18.394 171.882 18.3604 171.94 18.3016C171.998 18.2429 172.031 18.1637 172.032 18.0807V4.91596C172.032 4.8743 172.025 4.83291 172.01 4.79422C171.994 4.75553 171.971 4.72031 171.943 4.69059C171.914 4.66086 171.879 4.63722 171.841 4.62106C171.803 4.60489 171.762 4.59654 171.721 4.59644Z" fill="#252425"/>
<path d="M170.478 0H171.311C171.502 0 171.685 0.0767562 171.821 0.213383C171.956 0.35001 172.032 0.535316 172.032 0.728536V1.5737C172.032 1.76629 171.956 1.95098 171.821 2.08716C171.687 2.22334 171.504 2.29984 171.313 2.29984H170.475C170.285 2.29984 170.102 2.22334 169.967 2.08716C169.832 1.95098 169.757 1.76629 169.757 1.5737V0.728536C169.757 0.535316 169.833 0.35001 169.968 0.213383C170.103 0.0767562 170.287 0 170.478 0V0Z" fill="#252425"/>
<path d="M43.3271 0.00231934H35.8928C35.8105 0.00334545 35.7319 0.036713 35.6736 0.0953231C35.6152 0.153933 35.5818 0.233179 35.5804 0.316265V18.0879C35.5818 18.171 35.6152 18.2502 35.6736 18.3089C35.7319 18.3675 35.8105 18.4008 35.8928 18.4019H37.5299C37.6124 18.4016 37.6915 18.3684 37.7497 18.3094C37.808 18.2504 37.8407 18.1704 37.8407 18.0871V10.352H42.1004C42.1827 10.352 42.2616 10.3192 42.32 10.2607C42.3783 10.2022 42.4114 10.1227 42.4121 10.0397V8.36691C42.4108 8.28395 42.3777 8.20473 42.3197 8.14599C42.2617 8.08725 42.1834 8.0536 42.1012 8.05216H37.8407V2.30057H43.3295C43.4118 2.29955 43.4904 2.26618 43.5487 2.20757C43.607 2.14896 43.6405 2.06971 43.6419 1.98663V0.316265C43.6404 0.232768 43.6067 0.15317 43.5479 0.0944943C43.489 0.0358185 43.4098 0.00272411 43.3271 0.00231934Z" fill="#252425"/>
<path d="M61.8251 6.90027C61.907 6.89905 61.9852 6.86583 62.0433 6.80758C62.1014 6.74934 62.1349 6.6706 62.1367 6.58793V4.91516C62.1357 4.83207 62.1027 4.75266 62.0447 4.69375C61.9866 4.63484 61.9082 4.60108 61.8259 4.59963H58.4828V0.314676C58.4818 0.231584 58.4488 0.152179 58.3908 0.0932707C58.3327 0.0343623 58.2543 0.000593394 58.172 -0.000854492H56.5183C56.436 0.000171623 56.3574 0.0335392 56.2991 0.0921493C56.2407 0.150759 56.2073 0.230005 56.2059 0.313091V14.9485C56.2059 15.8635 56.5658 16.7411 57.2064 17.3881C57.8469 18.0352 58.7158 18.3987 59.6217 18.3987H61.8259C61.908 18.3987 61.9868 18.366 62.0451 18.3076C62.1035 18.2493 62.1367 18.17 62.1375 18.0871V16.4144C62.1365 16.3313 62.1035 16.2519 62.0455 16.1929C61.9874 16.134 61.909 16.1003 61.8267 16.0988H59.67C59.3553 16.0988 59.0536 15.9726 58.8311 15.7479C58.6086 15.5232 58.4836 15.2184 58.4836 14.9006V6.90027H61.8251Z" fill="#252425"/>
<path d="M53.6648 4.59644H52.0111C51.9288 4.59746 51.8502 4.6308 51.7918 4.68941C51.7335 4.74803 51.7001 4.82727 51.6987 4.91036V15.7817C51.6972 15.8648 51.6638 15.944 51.6055 16.0026C51.5472 16.0612 51.4685 16.0946 51.3862 16.0956H48.2828C47.9818 16.0935 47.6937 15.9715 47.4812 15.7561C47.2687 15.5407 47.1489 15.2494 47.1479 14.9453V4.91596C47.148 4.87463 47.14 4.83369 47.1245 4.79546C47.1089 4.75723 47.086 4.72247 47.0572 4.69317C47.0283 4.66387 46.994 4.6406 46.9563 4.62469C46.9185 4.60878 46.878 4.60051 46.8371 4.60041H45.1762C45.094 4.60144 45.0153 4.6348 44.957 4.69341C44.8987 4.75202 44.8653 4.83127 44.8638 4.91435V14.9493C44.8638 15.4024 44.9522 15.851 45.1238 16.2696C45.2955 16.6882 45.5471 17.0686 45.8643 17.3889C46.1815 17.7093 46.558 17.9634 46.9725 18.1368C47.3869 18.3102 47.8311 18.3995 48.2797 18.3995H53.1151C53.342 18.3995 53.5596 18.3087 53.7202 18.147C53.8809 17.9853 53.9716 17.7658 53.9725 17.5367V4.91596C53.9725 4.83272 53.9404 4.75275 53.8829 4.69307C53.8254 4.63339 53.7472 4.59872 53.6648 4.59644Z" fill="#252425"/>
<path d="M73.1625 4.59644H71.5088C71.4265 4.59746 71.3478 4.6308 71.2895 4.68941C71.2312 4.74803 71.1978 4.82727 71.1964 4.91036V15.7817C71.1949 15.8646 71.1616 15.9438 71.1035 16.0024C71.0453 16.0609 70.9669 16.0944 70.8847 16.0956H67.7813C67.4803 16.0935 67.1922 15.9715 66.9797 15.7561C66.7672 15.5407 66.6474 15.2494 66.6464 14.9453V4.91596C66.6454 4.83287 66.6124 4.75344 66.5543 4.69453C66.4963 4.63563 66.4178 4.60186 66.3356 4.60041H64.6747C64.5926 4.60164 64.5142 4.63509 64.456 4.69368C64.3978 4.75227 64.3645 4.83141 64.3631 4.91435V14.9493C64.363 15.4024 64.4513 15.8511 64.6229 16.2697C64.7945 16.6884 65.0461 17.0688 65.3633 17.3892C65.6805 17.7096 66.0572 17.9637 66.4716 18.1371C66.8861 18.3104 67.3303 18.3996 67.7789 18.3995H72.6152C72.842 18.3995 73.0596 18.3087 73.2203 18.147C73.381 17.9853 73.4717 17.7658 73.4725 17.5367V4.91596C73.4725 4.83231 73.4401 4.75199 73.3821 4.69224C73.3241 4.6325 73.2453 4.59811 73.1625 4.59644Z" fill="#252425"/>
<path d="M174.866 18.3994H176.52C176.561 18.3995 176.602 18.3915 176.639 18.3758C176.677 18.3601 176.712 18.337 176.741 18.3078C176.77 18.2787 176.793 18.244 176.809 18.2059C176.824 18.1677 176.833 18.1268 176.833 18.0855V7.21417C176.834 7.13109 176.867 7.05184 176.926 6.99323C176.984 6.93462 177.063 6.90128 177.145 6.90025H180.246C180.547 6.90235 180.835 7.02434 181.048 7.23972C181.26 7.45511 181.38 7.74648 181.381 8.05055V18.0855C181.382 18.1685 181.415 18.2477 181.473 18.3064C181.531 18.3652 181.61 18.3988 181.692 18.4002H183.353C183.435 18.4002 183.514 18.3672 183.573 18.3083C183.631 18.2495 183.664 18.1696 183.664 18.0863V8.04977C183.664 7.13473 183.304 6.25715 182.664 5.61012C182.023 4.96309 181.154 4.59961 180.248 4.59961H175.415C175.188 4.59982 174.971 4.6908 174.81 4.85266C174.65 5.01451 174.559 5.23404 174.559 5.46314V18.0847C174.559 18.1675 174.591 18.2469 174.649 18.3059C174.706 18.3648 174.785 18.3984 174.866 18.3994Z" fill="#252425"/>
<path d="M109.534 3.45016C109.534 2.53512 109.174 1.65757 108.533 1.01054C107.893 0.363505 107.024 0 106.118 0H100.74C100.658 0.00102611 100.579 0.0343693 100.521 0.0929794C100.462 0.15159 100.429 0.23086 100.427 0.313946V18.0856C100.429 18.1687 100.462 18.2479 100.521 18.3065C100.579 18.3651 100.658 18.3985 100.74 18.3995H102.394C102.476 18.3993 102.555 18.366 102.613 18.307C102.672 18.248 102.704 18.1681 102.704 18.0848V11.5H106.12C107.026 11.5 107.895 11.1365 108.536 10.4895C109.176 9.84243 109.536 8.96488 109.536 8.04984V3.44936L109.534 3.45016ZM102.702 2.30064H106.07C106.223 2.2953 106.375 2.32103 106.519 2.37629C106.662 2.43155 106.793 2.51523 106.903 2.62239C107.014 2.72955 107.102 2.85801 107.163 3.00018C107.223 3.14236 107.255 3.29537 107.256 3.45016V8.04426C107.255 8.19936 107.224 8.35271 107.163 8.49528C107.103 8.63786 107.014 8.76677 106.904 8.87441C106.793 8.98206 106.663 9.06627 106.519 9.12208C106.376 9.17788 106.223 9.20415 106.07 9.19935H102.702V2.30064Z" fill="#252425"/>
<path d="M127.821 8.04975C127.821 7.13534 127.461 6.25858 126.82 5.61222C126.18 4.96586 125.312 4.60278 124.406 4.60278H122.167C121.261 4.60278 120.392 4.96629 119.751 5.61332C119.111 6.26035 118.751 7.1379 118.751 8.05294V14.9501C118.751 15.8651 119.111 16.7427 119.751 17.3897C120.392 18.0367 121.261 18.4002 122.167 18.4002H124.406C124.855 18.4003 125.299 18.3112 125.714 18.1378C126.128 17.9645 126.505 17.7103 126.822 17.3899C127.139 17.0695 127.391 16.6891 127.562 16.2705C127.734 15.8519 127.822 15.4032 127.822 14.9501V8.05055L127.821 8.04975ZM124.394 16.0964H122.166C122.015 16.1008 121.865 16.0741 121.725 16.0179C121.585 15.9617 121.458 15.8772 121.351 15.7696C121.244 15.662 121.161 15.5335 121.105 15.392C121.049 15.2505 121.023 15.0991 121.027 14.9469V8.09607C121.027 7.77827 121.152 7.47351 121.374 7.2488C121.597 7.02408 121.899 6.89782 122.213 6.89782H124.394C124.547 6.89248 124.7 6.9182 124.843 6.97347C124.986 7.02873 125.117 7.1124 125.227 7.21957C125.338 7.32673 125.426 7.45521 125.487 7.59738C125.547 7.73956 125.579 7.89255 125.58 8.04734V14.9477C125.579 15.1023 125.547 15.2553 125.487 15.3973C125.426 15.5394 125.338 15.6678 125.227 15.7749C125.117 15.882 124.986 15.9656 124.843 16.0208C124.7 16.076 124.548 16.1017 124.394 16.0964Z" fill="#252425"/>
<path d="M81.398 4.59644H79.1179C78.6693 4.59644 78.2251 4.68568 77.8107 4.85906C77.3963 5.03245 77.0197 5.28657 76.7025 5.60695C76.3853 5.92732 76.1337 6.30767 75.962 6.72626C75.7904 7.14485 75.702 7.59351 75.702 8.0466V18.0823C75.7022 18.1657 75.7352 18.2455 75.7936 18.3044C75.852 18.3632 75.9311 18.3963 76.0136 18.3963H77.6508C77.733 18.395 77.8116 18.3615 77.8698 18.3027C77.9279 18.2439 77.9612 18.1646 77.9624 18.0815V8.04979C77.9632 7.89486 77.9949 7.74169 78.0554 7.59932C78.1159 7.45696 78.2041 7.3283 78.3147 7.22097C78.4253 7.11364 78.5561 7.02982 78.6994 6.97446C78.8426 6.91909 78.9954 6.89332 79.1487 6.89866H81.3956C81.4779 6.89764 81.5565 6.86427 81.6148 6.80566C81.6732 6.74705 81.7066 6.6678 81.708 6.58472V4.91596C81.708 4.83231 81.6756 4.75199 81.6176 4.69224C81.5597 4.6325 81.4808 4.59811 81.398 4.59644Z" fill="#252425"/>
<path d="M117.053 4.59644H114.773C114.324 4.59644 113.88 4.68568 113.465 4.85906C113.051 5.03245 112.674 5.28657 112.357 5.60695C112.04 5.92732 111.788 6.30767 111.617 6.72626C111.445 7.14485 111.357 7.59351 111.357 8.0466V18.0823C111.357 18.1237 111.365 18.1646 111.381 18.2027C111.397 18.2409 111.42 18.2755 111.449 18.3047C111.478 18.3338 111.512 18.3569 111.55 18.3726C111.588 18.3883 111.628 18.3964 111.669 18.3963H113.306C113.388 18.3948 113.467 18.3612 113.525 18.3024C113.583 18.2437 113.616 18.1645 113.617 18.0815V8.04979C113.618 7.8949 113.65 7.74176 113.71 7.59945C113.771 7.45713 113.859 7.32852 113.97 7.22121C114.08 7.11391 114.211 7.03008 114.354 6.97468C114.497 6.91927 114.65 6.89343 114.803 6.89866H117.05C117.133 6.89764 117.211 6.86427 117.27 6.80566C117.328 6.74705 117.361 6.6678 117.363 6.58472V4.91596C117.363 4.83231 117.33 4.75199 117.272 4.69224C117.214 4.6325 117.136 4.59811 117.053 4.59644Z" fill="#252425"/>
<path d="M194.687 4.59644H189.302C188.397 4.59644 187.528 4.95992 186.887 5.60695C186.246 6.25398 185.887 7.13156 185.887 8.0466V14.9461C185.887 15.8611 186.246 16.7387 186.887 17.3857C187.528 18.0328 188.397 18.3963 189.302 18.3963H192.721V19.5466C192.726 19.6988 192.699 19.8503 192.644 19.9918C192.588 20.1333 192.504 20.2618 192.398 20.3695C192.291 20.4772 192.164 20.5618 192.024 20.6181C191.884 20.6744 191.734 20.7012 191.583 20.6969H189.369C189.328 20.6967 189.288 20.7046 189.25 20.7202C189.212 20.7358 189.178 20.7588 189.149 20.7878C189.12 20.8168 189.097 20.8513 189.081 20.8893C189.066 20.9273 189.057 20.9681 189.057 21.0093V22.682C189.057 22.7233 189.065 22.7643 189.081 22.8025C189.096 22.8407 189.119 22.8755 189.148 22.9048C189.177 22.9341 189.211 22.9574 189.249 22.9733C189.287 22.9892 189.327 22.9974 189.368 22.9975H191.587C192.035 22.9976 192.479 22.9085 192.894 22.7351C193.308 22.5618 193.685 22.3076 194.002 21.9872C194.319 21.6668 194.571 21.2865 194.743 20.8678C194.914 20.4492 195.002 20.0005 195.002 19.5474V4.91596C195.002 4.83136 194.969 4.75019 194.91 4.69029C194.851 4.63039 194.771 4.59665 194.687 4.59644ZM189.355 16.0996C189.201 16.105 189.049 16.0792 188.905 16.0239C188.762 15.9686 188.631 15.8848 188.521 15.7776C188.41 15.6703 188.322 15.5418 188.262 15.3995C188.201 15.2573 188.169 15.1042 188.168 14.9493V8.04898C188.169 7.89419 188.201 7.74118 188.262 7.59901C188.322 7.45683 188.411 7.32838 188.521 7.22121C188.632 7.11405 188.763 7.03038 188.906 6.97511C189.049 6.91985 189.201 6.89413 189.355 6.89947H192.722V16.0996H189.355Z" fill="#252425"/>
<path d="M133.242 6.90191H136.722C136.804 6.90067 136.883 6.86711 136.941 6.80835C136.999 6.74959 137.032 6.67025 137.034 6.58716V4.91602C137.034 4.87469 137.026 4.83374 137.01 4.79552C136.995 4.75729 136.972 4.72252 136.943 4.69322C136.914 4.66392 136.88 4.64066 136.842 4.62474C136.804 4.60883 136.764 4.60057 136.723 4.60046H133.338C133.291 4.60046 133.242 4.60046 133.191 4.60046C132.285 4.60046 131.416 4.96397 130.775 5.611C130.135 6.25803 129.775 7.13558 129.775 8.05062V14.9509C129.775 15.866 130.135 16.7436 130.775 17.3906C131.416 18.0376 132.285 18.4011 133.191 18.4011H136.723C136.805 18.3997 136.884 18.3659 136.942 18.307C137 18.2481 137.033 18.1687 137.034 18.0856V16.4128C137.033 16.3297 137 16.2501 136.942 16.1916C136.883 16.133 136.804 16.1003 136.722 16.1005H133.242C133.089 16.1058 132.936 16.0801 132.793 16.0248C132.65 15.9695 132.519 15.8857 132.408 15.7784C132.298 15.6712 132.21 15.5426 132.149 15.4004C132.088 15.2581 132.057 15.105 132.056 14.9502V8.04984C132.057 7.89509 132.088 7.74211 132.149 7.59996C132.21 7.45782 132.298 7.32942 132.409 7.22237C132.519 7.11531 132.65 7.03177 132.793 6.97673C132.936 6.92168 133.089 6.89624 133.242 6.90191Z" fill="#252425"/>
<path d="M88.7508 4.59644H86.5111C86.0625 4.59644 85.6183 4.68568 85.2039 4.85906C84.7894 5.03245 84.4129 5.28657 84.0957 5.60695C83.7785 5.92732 83.5269 6.30767 83.3552 6.72626C83.1836 7.14485 83.0952 7.59351 83.0952 8.0466V14.9461C83.0951 15.3992 83.1834 15.8479 83.355 16.2665C83.5266 16.6852 83.7782 17.0656 84.0955 17.386C84.4127 17.7064 84.7893 17.9605 85.2038 18.1339C85.6182 18.3072 86.0624 18.3964 86.5111 18.3963H90.9582C90.9991 18.3964 91.0397 18.3883 91.0775 18.3726C91.1154 18.3569 91.1498 18.3338 91.1788 18.3047C91.2078 18.2755 91.2308 18.2409 91.2466 18.2027C91.2623 18.1646 91.2705 18.1237 91.2706 18.0823V16.412C91.2694 16.329 91.2363 16.2498 91.1783 16.191C91.1203 16.1323 91.0419 16.0987 90.9598 16.0972H86.5395C86.2249 16.0972 85.9231 15.971 85.7007 15.7463C85.4782 15.5215 85.3532 15.2168 85.3532 14.899V12.6463H91.8519C91.9342 12.6452 92.0128 12.6119 92.0711 12.5533C92.1294 12.4947 92.1629 12.4154 92.1643 12.3323V8.04898C92.1646 7.5959 92.0766 7.14719 91.9052 6.72848C91.7338 6.30976 91.4825 5.92925 91.1655 5.60865C90.8485 5.28805 90.4722 5.03364 90.0578 4.85997C89.6435 4.68629 89.1994 4.59675 88.7508 4.59644ZM89.9063 10.348H85.3556V8.09691C85.3556 7.77912 85.4805 7.47433 85.703 7.24962C85.9255 7.0249 86.2273 6.89866 86.5419 6.89866H88.7184C89.033 6.89866 89.3348 7.0249 89.5573 7.24962C89.7797 7.47433 89.9047 7.77912 89.9047 8.09691L89.9063 10.348Z" fill="#252425"/>
<path d="M144.685 4.59644H142.408C141.96 4.59644 141.516 4.68568 141.101 4.85906C140.687 5.03245 140.31 5.28657 139.993 5.60695C139.676 5.92732 139.424 6.30767 139.253 6.72626C139.081 7.14485 138.993 7.59351 138.993 8.0466V14.9461C138.993 15.3992 139.081 15.8479 139.252 16.2665C139.424 16.6852 139.676 17.0656 139.993 17.386C140.31 17.7064 140.687 17.9605 141.101 18.1339C141.516 18.3072 141.96 18.3964 142.408 18.3963H146.893C146.975 18.3952 147.054 18.3619 147.112 18.3033C147.17 18.2447 147.204 18.1654 147.205 18.0823V16.412C147.204 16.329 147.171 16.2498 147.113 16.191C147.055 16.1323 146.977 16.0987 146.894 16.0972H142.458C142.143 16.0972 141.841 15.971 141.619 15.7463C141.396 15.5215 141.271 15.2168 141.271 14.899V12.6463H147.79C147.873 12.6452 147.951 12.6119 148.01 12.5533C148.068 12.4947 148.101 12.4154 148.103 12.3323V8.04899C148.103 7.59557 148.015 7.14652 147.843 6.72755C147.672 6.30858 147.42 5.92789 147.103 5.60724C146.785 5.28659 146.408 5.03226 145.994 4.85882C145.579 4.68538 145.134 4.59623 144.685 4.59644ZM145.824 10.348H141.27V8.04818C141.272 7.74382 141.392 7.45253 141.606 7.23738C141.819 7.02223 142.107 6.90055 142.408 6.89866H144.685C144.987 6.89866 145.277 7.01978 145.49 7.23535C145.704 7.45093 145.824 7.74331 145.824 8.04818V10.348Z" fill="#252425"/>
<path d="M156.633 11.3729L153.038 9.7361C152.829 9.6407 152.651 9.48633 152.526 9.29151C152.402 9.0967 152.335 8.8697 152.335 8.63771V8.04977C152.33 7.89765 152.357 7.74622 152.413 7.60477C152.468 7.46332 152.552 7.33481 152.658 7.22712C152.765 7.11943 152.892 7.03483 153.032 6.97849C153.172 6.92214 153.322 6.89526 153.472 6.89945H157.133C157.215 6.89842 157.294 6.86506 157.352 6.80645C157.411 6.74784 157.444 6.66859 157.446 6.5855V4.91595C157.444 4.83299 157.411 4.75377 157.353 4.69503C157.295 4.63629 157.217 4.60264 157.135 4.6012H153.474C152.568 4.6012 151.699 4.9647 151.058 5.61173C150.418 6.25876 150.058 7.13632 150.058 8.05136V8.72159C150.057 9.28836 150.218 9.84331 150.521 10.3203C150.824 10.7974 151.257 11.1763 151.767 11.412L155.37 13.0521C155.575 13.1408 155.75 13.2884 155.873 13.4765C155.996 13.6646 156.061 13.885 156.062 14.1105V14.9509C156.061 15.2558 155.941 15.548 155.727 15.7636C155.514 15.9792 155.225 16.1006 154.923 16.1012H150.37C150.33 16.101 150.289 16.1089 150.251 16.1245C150.213 16.1401 150.179 16.163 150.15 16.192C150.121 16.221 150.098 16.2555 150.082 16.2935C150.066 16.3315 150.058 16.3723 150.058 16.4136V18.0863C150.059 18.1694 150.092 18.2488 150.15 18.3077C150.208 18.3666 150.286 18.4004 150.369 18.4018H154.923C155.829 18.4018 156.697 18.0383 157.338 17.3913C157.979 16.7443 158.338 15.8667 158.338 14.9517V14.0226C158.338 13.4618 158.176 12.9131 157.874 12.4429C157.571 11.9727 157.14 11.6011 156.633 11.3729Z" fill="#252425"/>
<path d="M166.078 11.3729L162.484 9.7361C162.274 9.6407 162.096 9.48633 161.972 9.29151C161.847 9.0967 161.781 8.8697 161.78 8.63771V8.04977C161.776 7.89765 161.802 7.74622 161.858 7.60477C161.914 7.46332 161.997 7.33481 162.104 7.22712C162.21 7.11943 162.337 7.03483 162.477 6.97849C162.617 6.92214 162.767 6.89526 162.918 6.89945H166.579C166.661 6.89842 166.74 6.86506 166.798 6.80645C166.856 6.74784 166.89 6.66859 166.891 6.5855V4.91595C166.89 4.83299 166.857 4.75377 166.799 4.69503C166.741 4.63629 166.662 4.60264 166.58 4.6012H162.919C162.013 4.6012 161.145 4.9647 160.504 5.61173C159.863 6.25876 159.503 7.13632 159.503 8.05136V8.72159C159.503 9.28836 159.664 9.84331 159.967 10.3203C160.27 10.7974 160.702 11.1763 161.213 11.412L164.815 13.0521C165.02 13.1408 165.195 13.2884 165.318 13.4765C165.441 13.6646 165.507 13.885 165.507 14.1105V14.9509C165.506 15.2558 165.386 15.548 165.173 15.7636C164.959 15.9792 164.67 16.1006 164.368 16.1012H159.815C159.774 16.101 159.734 16.1089 159.696 16.1245C159.658 16.1401 159.624 16.163 159.595 16.192C159.566 16.221 159.543 16.2555 159.527 16.2935C159.511 16.3315 159.503 16.3723 159.503 16.4136V18.0863C159.504 18.1694 159.537 18.2488 159.595 18.3077C159.653 18.3666 159.731 18.4004 159.813 18.4018H164.367C165.273 18.4018 166.142 18.0383 166.783 17.3913C167.423 16.7443 167.783 15.8667 167.783 14.9517V14.0226C167.783 13.4618 167.621 12.9132 167.319 12.443C167.016 11.9728 166.585 11.6012 166.078 11.3729Z" fill="#252425"/>
<path d="M18.2133 0.00231934H0.312391C0.230126 0.00334545 0.151499 0.036713 0.0931767 0.0953231C0.0348544 0.153933 0.00143348 0.233179 0 0.316265V18.0927C0.00101591 18.1758 0.0340394 18.2552 0.0920665 18.3141C0.150093 18.373 0.228551 18.4068 0.31081 18.4082H18.2125C20.6277 18.4059 22.9432 17.4354 24.6505 15.71C26.3577 13.9845 27.3171 11.6451 27.318 9.20567C27.3176 6.76616 26.3584 4.42661 24.6513 2.70094C22.9441 0.975275 20.6285 0.00464808 18.2133 0.00231934ZM18.2133 17.2523C16.0996 17.2523 14.0724 16.4042 12.5778 14.8946C11.0832 13.3849 10.2435 11.3374 10.2435 9.20248C10.2435 7.06753 11.0832 5.02002 12.5778 3.51038C14.0724 2.00074 16.0996 1.15264 18.2133 1.15264V17.2523Z" fill="#252425"/>
</g>
<defs>
<clipPath id="clip0_1_45">
<rect width="195" height="23" fill="white"/>
</clipPath>
</defs>
</svg>
