<svg width="12" height="14" viewBox="0 0 12 14" fill="none" xmlns="http://www.w3.org/2000/svg">
<path d="M1 12.5V4.5" stroke="#A3A3A3" stroke-width="2" stroke-linecap="round" stroke-linejoin="round"/>
<path d="M5 12.5V4.5" stroke="#A3A3A3" stroke-width="2" stroke-linecap="round" stroke-linejoin="round"/>
<path d="M5 7.5C5 6.70435 5.31607 5.94129 5.87868 5.37868C6.44129 4.81607 7.20435 4.5 8 4.5C8.79565 4.5 9.55871 4.81607 10.1213 5.37868C10.6839 5.94129 11 6.70435 11 7.5V12.5" stroke="#A3A3A3" stroke-width="2" stroke-linecap="round" stroke-linejoin="round"/>
<path d="M1.5 2C2.05228 2 2.5 1.55228 2.5 1C2.5 0.447715 2.05228 0 1.5 0C0.947715 0 0.5 0.447715 0.5 1C0.5 1.55228 0.947715 2 1.5 2Z" fill="#A3A3A3"/>
</svg>
